<svg preserveAspectRatio="none" overflow="visible" style="display: block;" width="18.0006" height="15.0008" viewBox="0 0 18.0006 15.0008" fill="none" xmlns="http://www.w3.org/2000/svg">
<g id="Group">
<path id="Vector" d="M18.0006 7.50039C18.0006 7.69929 17.9216 7.89009 17.7809 8.03079C17.6403 8.17139 17.4495 8.25039 17.2506 8.25039H2.5609L8.03119 13.7198C8.10089 13.7895 8.15619 13.8722 8.19389 13.9633C8.23159 14.0543 8.25099 14.1519 8.25099 14.2504C8.25099 14.349 8.23159 14.4466 8.19389 14.5376C8.15619 14.6286 8.10089 14.7114 8.03119 14.7811C7.96149 14.8507 7.87879 14.906 7.78779 14.9437C7.69669 14.9814 7.59909 15.0008 7.50059 15.0008C7.40209 15.0008 7.30449 14.9814 7.21339 14.9437C7.12239 14.906 7.03969 14.8507 6.96997 14.7811L0.21997 8.03109C0.15023 7.96139 0.0949199 7.87869 0.0571699 7.78759C0.0194299 7.69659 0 7.59899 0 7.50039C0 7.40189 0.0194299 7.30429 0.0571699 7.21319C0.0949199 7.12219 0.15023 7.03949 0.21997 6.96979L6.96997 0.21979C7.11069 0.07906 7.30159 0 7.50059 0C7.69959 0 7.89049 0.07906 8.03119 0.21979C8.17199 0.36052 8.25099 0.5514 8.25099 0.75042C8.25099 0.94944 8.17199 1.14031 8.03119 1.28104L2.5609 6.75039H17.2506C17.4495 6.75039 17.6403 6.82939 17.7809 6.97009C17.9216 7.11079 18.0006 7.30149 18.0006 7.50039Z" fill="#1B1B1B"/>
</g>
</svg>
